<svg width="20" height="20" viewBox="0 0 20 20" fill="none" xmlns="http://www.w3.org/2000/svg">
<mask id="path-1-inside-1_13402_54851" fill="white">
<path d="M9.99994 1.875C8.59718 1.87469 7.21824 2.23757 5.99733 2.9283C4.77642 3.61904 3.75514 4.6141 3.03289 5.81664C2.31064 7.01918 1.91204 8.38822 1.87587 9.79052C1.8397 11.1928 2.16721 12.5806 2.8265 13.8188L1.93979 16.4789C1.86634 16.6992 1.85568 16.9355 1.909 17.1615C1.96233 17.3874 2.07753 17.5941 2.2417 17.7582C2.40587 17.9224 2.61252 18.0376 2.83848 18.0909C3.06444 18.1443 3.30079 18.1336 3.52104 18.0602L6.18119 17.1734C7.27086 17.753 8.47823 18.0767 9.71168 18.12C10.9451 18.1633 12.1722 17.925 13.2998 17.4232C14.4274 16.9215 15.4259 16.1694 16.2195 15.2241C17.013 14.2789 17.5808 13.1652 17.8797 11.9678C18.1786 10.7703 18.2008 9.52047 17.9446 8.31315C17.6883 7.10584 17.1604 5.97276 16.4009 4.99993C15.6414 4.02711 14.6702 3.24009 13.5611 2.69864C12.452 2.15718 11.2341 1.87551 9.99994 1.875ZM9.99994 16.875C8.79133 16.8758 7.60392 16.5575 6.55775 15.9523C6.48116 15.9079 6.396 15.8803 6.30791 15.8713C6.21983 15.8622 6.13083 15.872 6.04682 15.9L3.12494 16.875L4.09916 13.9531C4.12724 13.8692 4.13717 13.7802 4.12828 13.6921C4.11939 13.604 4.09189 13.5188 4.0476 13.4422C3.28976 12.132 2.9855 10.6083 3.182 9.10747C3.3785 7.60667 4.06478 6.21267 5.13439 5.14171C6.20399 4.07076 7.59712 3.38271 9.09767 3.18431C10.5982 2.98592 12.1223 3.28826 13.4335 4.04444C14.7447 4.80062 15.7697 5.96837 16.3494 7.36652C16.9292 8.76468 17.0314 10.3151 16.6401 11.7773C16.2488 13.2394 15.386 14.5316 14.1854 15.4533C12.9848 16.375 11.5135 16.8748 9.99994 16.875Z"/>
</mask>
<path d="M9.99994 1.875C8.59718 1.87469 7.21824 2.23757 5.99733 2.9283C4.77642 3.61904 3.75514 4.6141 3.03289 5.81664C2.31064 7.01918 1.91204 8.38822 1.87587 9.79052C1.8397 11.1928 2.16721 12.5806 2.8265 13.8188L1.93979 16.4789C1.86634 16.6992 1.85568 16.9355 1.909 17.1615C1.96233 17.3874 2.07753 17.5941 2.2417 17.7582C2.40587 17.9224 2.61252 18.0376 2.83848 18.0909C3.06444 18.1443 3.30079 18.1336 3.52104 18.0602L6.18119 17.1734C7.27086 17.753 8.47823 18.0767 9.71168 18.12C10.9451 18.1633 12.1722 17.925 13.2998 17.4232C14.4274 16.9215 15.4259 16.1694 16.2195 15.2241C17.013 14.2789 17.5808 13.1652 17.8797 11.9678C18.1786 10.7703 18.2008 9.52047 17.9446 8.31315C17.6883 7.10584 17.1604 5.97276 16.4009 4.99993C15.6414 4.02711 14.6702 3.24009 13.5611 2.69864C12.452 2.15718 11.2341 1.87551 9.99994 1.875ZM9.99994 16.875C8.79133 16.8758 7.60392 16.5575 6.55775 15.9523C6.48116 15.9079 6.396 15.8803 6.30791 15.8713C6.21983 15.8622 6.13083 15.872 6.04682 15.9L3.12494 16.875L4.09916 13.9531C4.12724 13.8692 4.13717 13.7802 4.12828 13.6921C4.11939 13.604 4.09189 13.5188 4.0476 13.4422C3.28976 12.132 2.9855 10.6083 3.182 9.10747C3.3785 7.60667 4.06478 6.21267 5.13439 5.14171C6.20399 4.07076 7.59712 3.38271 9.09767 3.18431C10.5982 2.98592 12.1223 3.28826 13.4335 4.04444C14.7447 4.80062 15.7697 5.96837 16.3494 7.36652C16.9292 8.76468 17.0314 10.3151 16.6401 11.7773C16.2488 13.2394 15.386 14.5316 14.1854 15.4533C12.9848 16.375 11.5135 16.8748 9.99994 16.875Z" fill="#211F26"/>
<path d="M9.99994 1.875L10.001 -0.625L10.0005 -0.625L9.99994 1.875ZM2.8265 13.8188L5.19821 14.6093L5.53762 13.5911L5.03317 12.6438L2.8265 13.8188ZM1.93979 16.4789L4.31138 17.2698L4.31149 17.2695L1.93979 16.4789ZM3.52104 18.0602L2.73047 15.6884L2.73013 15.6886L3.52104 18.0602ZM6.18119 17.1734L7.35517 14.9662L6.40818 14.4625L5.39062 14.8017L6.18119 17.1734ZM17.8797 11.9678L20.3053 12.5732L17.8797 11.9678ZM17.9446 8.31315L15.499 8.83218L17.9446 8.31315ZM9.99994 16.875L9.99953 14.375L9.99824 14.375L9.99994 16.875ZM6.55775 15.9523L5.3036 18.115L5.3059 18.1163L6.55775 15.9523ZM6.04682 15.9L5.25722 13.528L5.25549 13.5285L6.04682 15.9ZM3.12494 16.875L0.753298 16.0842L-0.829015 20.8299L3.91627 19.2465L3.12494 16.875ZM4.09916 13.9531L1.72827 13.1601L1.72752 13.1624L4.09916 13.9531ZM4.0476 13.4422L6.21224 12.1915L6.21168 12.1905L4.0476 13.4422ZM9.99994 1.875L10.0005 -0.625C8.16611 -0.6254 6.36287 -0.150871 4.7663 0.752398L5.99733 2.9283L7.22836 5.10421C8.0736 4.62601 9.02825 4.37479 9.9994 4.375L9.99994 1.875ZM5.99733 2.9283L4.7663 0.752398C3.16972 1.65567 1.8342 2.9569 0.889726 4.52945L3.03289 5.81664L5.17605 7.10383C5.67607 6.2713 6.38311 5.58241 7.22836 5.10421L5.99733 2.9283ZM3.03289 5.81664L0.889726 4.52945C-0.0547497 6.102 -0.576003 7.89229 -0.623298 9.72606L1.87587 9.79052L4.37504 9.85497C4.40008 8.88415 4.67604 7.93635 5.17605 7.10383L3.03289 5.81664ZM1.87587 9.79052L-0.623298 9.72606C-0.670594 11.5598 -0.242319 13.3746 0.619839 14.9938L2.8265 13.8188L5.03317 12.6438C4.57673 11.7866 4.35 10.8258 4.37504 9.85497L1.87587 9.79052ZM2.8265 13.8188L0.454797 13.0282L-0.431922 15.6883L1.93979 16.4789L4.31149 17.2695L5.19821 14.6093L2.8265 13.8188ZM1.93979 16.4789L-0.431811 15.688C-0.652159 16.3487 -0.684137 17.0578 -0.52416 17.7357L1.909 17.1615L4.34217 16.5873C4.39549 16.8132 4.38483 17.0496 4.31138 17.2698L1.93979 16.4789ZM1.909 17.1615L-0.52416 17.7357C-0.364182 18.4136 -0.0185701 19.0335 0.473934 19.526L2.2417 17.7582L4.00947 15.9905C4.17363 16.1546 4.28884 16.3613 4.34217 16.5873L1.909 17.1615ZM2.2417 17.7582L0.473934 19.526C0.966437 20.0185 1.58637 20.3641 2.26427 20.5241L2.83848 18.0909L3.41269 15.6578C3.63866 15.7111 3.8453 15.8263 4.00947 15.9905L2.2417 17.7582ZM2.83848 18.0909L2.26427 20.5241C2.94216 20.6841 3.65121 20.6521 4.31194 20.4318L3.52104 18.0602L2.73013 15.6886C2.95037 15.6151 3.18672 15.6045 3.41269 15.6578L2.83848 18.0909ZM3.52104 18.0602L4.3116 20.4319L6.97176 19.5451L6.18119 17.1734L5.39062 14.8017L2.73047 15.6884L3.52104 18.0602ZM6.18119 17.1734L5.00722 19.3806C6.43216 20.1386 8.01104 20.5619 9.62401 20.6185L9.71168 18.12L9.79935 15.6215C8.94543 15.5916 8.10955 15.3675 7.35517 14.9662L6.18119 17.1734ZM9.71168 18.12L9.62401 20.6185C11.237 20.6751 12.8417 20.3635 14.3162 19.7073L13.2998 17.4232L12.2835 15.1392C11.5028 15.4865 10.6533 15.6515 9.79935 15.6215L9.71168 18.12ZM13.2998 17.4232L14.3162 19.7073C15.7908 19.0511 17.0965 18.0677 18.1342 16.8316L16.2195 15.2241L14.3047 13.6167C13.7554 14.2711 13.0641 14.7918 12.2835 15.1392L13.2998 17.4232ZM16.2195 15.2241L18.1342 16.8316C19.1719 15.5954 19.9144 14.1391 20.3053 12.5732L17.8797 11.9678L15.4542 11.3623C15.2472 12.1913 14.8541 12.9623 14.3047 13.6167L16.2195 15.2241ZM17.8797 11.9678L20.3053 12.5732C20.6962 11.0073 20.7252 9.37292 20.3901 7.79412L17.9446 8.31315L15.499 8.83218C15.6764 9.66802 15.6611 10.5333 15.4542 11.3623L17.8797 11.9678ZM17.9446 8.31315L20.3901 7.79412C20.055 6.21533 19.3647 4.73361 18.3715 3.46145L16.4009 4.99993L14.4304 6.53842C14.9562 7.21191 15.3217 7.99635 15.499 8.83218L17.9446 8.31315ZM16.4009 4.99993L18.3715 3.46145C17.3782 2.18929 16.1082 1.16012 14.6579 0.452063L13.5611 2.69864L12.4643 4.94521C13.2322 5.32006 13.9045 5.86492 14.4304 6.53842L16.4009 4.99993ZM13.5611 2.69864L14.6579 0.452063C13.2075 -0.255997 11.6149 -0.624338 10.001 -0.625L9.99994 1.875L9.99892 4.375C10.8534 4.37535 11.6965 4.57035 12.4643 4.94521L13.5611 2.69864ZM9.99994 16.875L9.99824 14.375C9.22977 14.3755 8.47479 14.1732 7.80961 13.7884L6.55775 15.9523L5.3059 18.1163C6.73306 18.9419 8.35289 19.3761 10.0016 19.375L9.99994 16.875ZM6.55775 15.9523L7.81191 13.7897C7.42893 13.5676 7.00312 13.4294 6.56269 13.3843L6.30791 15.8713L6.05313 18.3582C5.78887 18.3312 5.53339 18.2483 5.3036 18.115L6.55775 15.9523ZM6.30791 15.8713L6.56269 13.3843C6.12227 13.3392 5.67728 13.3881 5.25722 13.528L6.04682 15.9L6.83641 18.272C6.58438 18.3559 6.31739 18.3853 6.05313 18.3582L6.30791 15.8713ZM6.04682 15.9L5.25549 13.5285L2.33361 14.5035L3.12494 16.875L3.91627 19.2465L6.83815 18.2715L6.04682 15.9ZM3.12494 16.875L5.49659 17.6658L6.47081 14.7439L4.09916 13.9531L1.72752 13.1624L0.753298 16.0842L3.12494 16.875ZM4.09916 13.9531L6.47005 14.7461C6.61047 14.3263 6.66009 13.8815 6.61565 13.4411L4.12828 13.6921L1.64091 13.9431C1.61425 13.6789 1.64402 13.412 1.72827 13.1601L4.09916 13.9531ZM4.12828 13.6921L6.61565 13.4411C6.5712 13.0007 6.4337 12.5747 6.21224 12.1915L4.0476 13.4422L1.88296 14.6929C1.75008 14.463 1.66758 14.2074 1.64091 13.9431L4.12828 13.6921ZM4.0476 13.4422L6.21168 12.1905C5.72942 11.3567 5.53579 10.3871 5.66084 9.43203L3.182 9.10747L0.703153 8.78291C0.435198 10.8295 0.850109 12.9072 1.88352 14.6939L4.0476 13.4422ZM3.182 9.10747L5.66084 9.43203C5.78589 8.47697 6.22261 7.58988 6.90327 6.90836L5.13439 5.14171L3.3655 3.37506C1.90695 4.83546 0.971108 6.73637 0.703153 8.78291L3.182 9.10747ZM5.13439 5.14171L6.90327 6.90836C7.58393 6.22684 8.47047 5.789 9.42536 5.66275L9.09767 3.18431L8.76998 0.705884C6.72378 0.976424 4.82405 1.91467 3.3655 3.37506L5.13439 5.14171ZM9.09767 3.18431L9.42536 5.66275C10.3803 5.53649 11.3501 5.72889 12.1845 6.2101L13.4335 4.04444L14.6825 1.87878C12.8945 0.847629 10.8162 0.435344 8.76998 0.705884L9.09767 3.18431ZM13.4335 4.04444L12.1845 6.2101C13.0189 6.6913 13.6712 7.43441 14.0401 8.32415L16.3494 7.36652L18.6588 6.4089C17.8681 4.50232 16.4704 2.90994 14.6825 1.87878L13.4335 4.04444ZM16.3494 7.36652L14.0401 8.32415C14.4091 9.21389 14.4741 10.2005 14.2251 11.131L16.6401 11.7773L19.0551 12.4235C19.5887 10.4297 19.4494 8.31548 18.6588 6.4089L16.3494 7.36652ZM16.6401 11.7773L14.2251 11.131C13.9761 12.0614 13.427 12.8837 12.663 13.4703L14.1854 15.4533L15.7078 17.4363C17.3449 16.1794 18.5216 14.4174 19.0551 12.4235L16.6401 11.7773ZM14.1854 15.4533L12.663 13.4703C11.899 14.0568 10.9627 14.3748 9.99953 14.375L9.99994 16.875L10.0004 19.375C12.0644 19.3747 14.0706 18.6932 15.7078 17.4363L14.1854 15.4533Z" fill="#211F26" mask="url(#path-1-inside-1_13402_54851)"/>
</svg>
