<svg width="17" height="23" viewBox="0 0 17 23" fill="none" xmlns="http://www.w3.org/2000/svg">
<path fill-rule="evenodd" clip-rule="evenodd" d="M16.5509 14.5176C16.3663 18.927 12.7347 22.4454 8.27992 22.4454C3.70703 22.4454 5.81227e-06 18.6138 5.81227e-06 14.1655C5.81227e-06 13.5709 -0.0106524 12.3827 0.880847 10.3779C1.41437 9.1781 1.749 8.42436 1.93786 7.73537C2.04162 7.3567 2.24342 6.75508 2.8187 7.73537C3.15791 8.31338 3.17104 9.14472 3.17104 9.14472C3.17104 9.14472 4.43311 8.17623 5.28506 6.32602C6.534 3.61365 5.5375 1.99228 5.19697 0.864805C5.07911 0.474768 5.00512 -0.226205 5.81356 0.0720476C6.63732 0.376026 8.81512 1.9005 9.95352 3.50733C11.5782 5.8006 12.1556 7.99962 12.1556 7.99962C12.1556 7.99962 12.6758 7.35396 12.8603 6.67836C13.0686 5.91546 13.0717 5.15988 13.741 5.97377C14.3776 6.74777 15.323 8.2023 15.8552 9.58514C16.8214 12.0963 16.5509 14.5176 16.5509 14.5176Z" fill="url(#paint0_linear_13402_54573)"/>
<path fill-rule="evenodd" clip-rule="evenodd" d="M8.28016 22.4462C5.11803 22.4462 2.55469 19.8828 2.55469 16.7207C2.55469 14.8127 3.32357 13.6543 4.9238 12.0834C5.94839 11.0776 6.90737 9.84219 7.31493 9.00099C7.39518 8.83539 7.57778 7.97243 8.28183 8.98284C8.65117 9.51276 9.23015 10.4552 9.60142 11.2595C10.2414 12.6462 10.3942 13.9901 10.3942 13.9901C10.3942 13.9901 11.0214 13.6205 11.4512 12.6688C11.5897 12.3621 11.8699 11.201 12.6529 12.3619C13.2275 13.2139 14.0168 14.7457 14.0056 16.7207C14.0056 19.8828 11.4422 22.4462 8.28016 22.4462Z" fill="#FC9502"/>
<path fill-rule="evenodd" clip-rule="evenodd" d="M8.37027 16.1953C9.18504 16.1953 9.18504 17.7041 10.22 19.7187C10.9092 21.0601 9.87836 22.4493 8.37027 22.4493C6.86218 22.4493 6.08008 21.2268 6.08008 19.7187C6.08008 18.2107 7.55549 16.1953 8.37027 16.1953Z" fill="#FCE202"/>
<defs>
<linearGradient id="paint0_linear_13402_54573" x1="8.29234" y1="22.462" x2="8.29234" y2="0.017083" gradientUnits="userSpaceOnUse">
<stop stop-color="#FF4C0D"/>
<stop offset="1" stop-color="#FC9502"/>
</linearGradient>
</defs>
</svg>
