<svg width="17" height="17" viewBox="0 0 17 17" fill="none" xmlns="http://www.w3.org/2000/svg">
<path d="M5.31152 6.56152L5.61914 6.50098M5.31152 6.56152V6.5625M5.31152 6.56152H5.3125M5.31152 6.56152L5.02344 6.44336M5.61914 6.50098L5.625 6.5625C5.625 6.62431 5.6066 6.68494 5.57227 6.73633C5.53793 6.78763 5.48868 6.82794 5.43164 6.85156C5.37481 6.87499 5.31226 6.88105 5.25195 6.86914C5.19133 6.85708 5.1355 6.82691 5.0918 6.7832M5.61914 6.50098C5.61109 6.46085 5.59503 6.42269 5.57227 6.38867L5.5332 6.3418M5.61914 6.50098L5.3125 6.56152M5.0918 6.7832L5.31152 6.5625M5.0918 6.7832L5.31152 6.5625M5.0918 6.7832C5.04809 6.7395 5.01792 6.68367 5.00586 6.62305C4.99395 6.56274 5.00001 6.50019 5.02344 6.44336M5.31152 6.5625L5.02344 6.44336M5.02344 6.44336L5.05469 6.39062C5.07736 6.35661 5.10437 6.32569 5.13867 6.30273L5.19336 6.27637C5.23124 6.26059 5.27107 6.25 5.3125 6.25C5.39538 6.25 5.4746 6.28319 5.5332 6.3418M10.7168 6.7832C10.6726 6.73903 10.6418 6.68346 10.6299 6.62305M10.7168 6.7832L10.9365 6.5625M10.7168 6.7832C10.7754 6.84181 10.8546 6.875 10.9375 6.875C10.9993 6.875 11.0599 6.8566 11.1113 6.82227C11.1626 6.78793 11.2029 6.73868 11.2266 6.68164C11.2422 6.64369 11.2471 6.60316 11.2471 6.5625L11.2441 6.50195L11.2129 6.41504L11.1582 6.3418M10.7168 6.7832L10.9365 6.5625M10.6299 6.62305L10.9365 6.5625M10.6299 6.62305L10.9365 6.5625M10.6299 6.62305C10.626 6.60331 10.625 6.58291 10.625 6.5625C10.625 6.52107 10.6356 6.48124 10.6514 6.44336M5.5332 6.3418L5.3125 6.56152M5.5332 6.3418L5.3125 6.56152M10.9375 6.56152L10.6514 6.44336M10.9375 6.56152L10.6777 6.38867M10.9375 6.56152L11.1582 6.3418M10.9375 6.56152H10.9365L10.8184 6.27344M10.9375 6.56152L10.6514 6.44336M10.9375 6.56152L11.1582 6.3418M10.6514 6.44336C10.6591 6.42473 10.6664 6.40561 10.6777 6.38867M10.6777 6.38867L10.9355 6.56055L10.8184 6.27344M10.6777 6.38867L10.7393 6.32129C10.7629 6.30183 10.7897 6.28529 10.8184 6.27344M11.1582 6.3418C11.1145 6.29809 11.0587 6.26792 10.998 6.25586C10.968 6.24992 10.9374 6.24901 10.9072 6.25195L10.8184 6.27344" fill="#211F26" stroke="#211F26" stroke-width="2.5"/>
</svg>
